# xmcd
#
# Track frame offsets:
#	150
#	17205
#	43418
#	65135
#	80861
#	93099
#	113719
#	133773
#	156309
#	167751
#	187506
#	207834
#	233949
#
# Disc length: 3404 seconds
#
# Revision: 0
# Processed by: cddbd v1.5.2PL0 Copyright (c) Steve Scherf et al.
# Submitted via: EasyCDDAExtractor 15.2.5.1
#
DISCID=b20d4a0d
DTITLE=Various Artist - The Village - A Celebration Of The Music Of Greenwich
DTITLE=Village
DYEAR=2009
DGENRE=Country
TTITLE0=Rickie Lee Jones - Subterranean Homesick Blues
TTITLE1=The Duhks - It's Alright Ma I'm Only Bleeding
TTITLE2=Lucinda Williams - Positively 4th Street
TTITLE3=Sixpence None The Richer - Wayfaring Stranger
TTITLE4=John Oates - He Was A Friend Of Mine
TTITLE5=Los Lobos - Guantanamera
TTITLE6=Mary Chapin Carpenter - Violets Of Dawn
TTITLE7=Bruce Hornsby - Darlin' Be Home Soon
TTITLE8=Amos Lee - Little Bit Of Rain
TTITLE9=Shelby Lynne - Don't Think Twice It's Alright
TTITLE10=Cowboy Junkies - Once I Was
TTITLE11=Rachael Yamagata - Both Sides Now
TTITLE12=Rocco Deluca - The Ballad Of Hollis Brown
EXTD=
EXTT0=
EXTT1=
EXTT2=
EXTT3=
EXTT4=
EXTT5=
EXTT6=
EXTT7=
EXTT8=
EXTT9=
EXTT10=
EXTT11=
EXTT12=
PLAYORDER=
